# xmcd
#
# Track frame offsets: 
#        150
#        870
#        29007
#        51160
#        72007
#        92567
#        122885
#        154975
#        168012
#        188937
#
# Disc length: 2966 seconds
#
# Revision: 1
# Processed by: cddbd v1.5.2PL0 Copyright (c) Steve Scherf et al.
# Submitted via: ExactAudioCopy v1.3
#
DISCID=770b940a
DTITLE=Kneuklid Romance - パズル
DYEAR=1994
DGENRE=visual kei
TTITLE0=瞬間ノ声
TTITLE1=Flowers
TTITLE2=雪の下で
TTITLE3=Painted time
TTITLE4=リフレイン
TTITLE5=深い青の中で
TTITLE6=Sing for・・・you
TTITLE7=風神
TTITLE8=An infinity of the sky
TTITLE9=鳥籠の中の彼女
EXTD=
EXTT0=
EXTT1=
EXTT2=
EXTT3=
EXTT4=
EXTT5=
EXTT6=
EXTT7=
EXTT8=
EXTT9=
PLAYORDER=
